<svg id="Layer_1" data-name="Layer 1" xmlns="http://www.w3.org/2000/svg" viewBox="0 0 1920 1080"><defs><style>.cls-1{fill:#ebf3f7;}.cls-2{fill:#0077b6;}.cls-3{fill:#f7a90f;}</style></defs><rect class="cls-1" width="1920" height="1080"/><path class="cls-2" d="M52.92,490.87A382.31,382.31,0,0,0,0,483.2V1081H1253.79c-52.79-66.18-140.34-114.61-233.14-134.48-44-9.4-87.91-19.69-132.59-24.69C761.5,907.6,624,934.53,511,884.44,382,827.35,335.38,693.26,239,600.7,185.09,548.88,132,508.1,52.92,490.87Z" transform="translate(0 -1)"/><path class="cls-3" d="M1920,1H1043.82c-7.21,34.43-8.25,69.33-.11,103.78,6.44,27.27,32.81,49,53.81,70.41,70.22,71.53,101.3,180.29,192.3,225.83,77.27,38.65,171.26,17.84,257.77,28.84,68.2,8.67,134,37.59,202.66,33.8,2.15-.12,4.29-.28,6.4-.47A508.56,508.56,0,0,0,1920,420.63Z" transform="translate(0 -1)"/></svg>