<svg id="Layer_1" data-name="Layer 1" xmlns="http://www.w3.org/2000/svg" viewBox="0 0 1920 1080"><defs><style>.cls-1{fill:#ebf3f7;}.cls-2{fill:#0077b6;}.cls-3{fill:#f7a90f;}</style></defs><rect class="cls-1" width="1920" height="1080"/><path class="cls-2" d="M239,480.3c96.38-92.56,143-226.65,272-283.74C624,146.47,761.5,173.4,888.06,159.17c44.68-5,88.63-15.29,132.59-24.69C1113.45,114.61,1201,66.18,1253.79,0H0V597.8a382.49,382.49,0,0,0,52.92-7.67C132,572.9,185.09,532.12,239,480.3Z"/><path class="cls-3" d="M1920,660.37a508.63,508.63,0,0,0-163.35-42.56c-2.11-.19-4.25-.35-6.4-.47-68.7-3.79-134.46,25.13-202.66,33.8-86.51,11-180.5-9.81-257.77,28.84-91,45.54-122.08,154.3-192.3,225.83-21,21.39-47.37,43.14-53.81,70.41-8.14,34.45-7.1,69.35.11,103.78H1920Z"/></svg>