<svg id="Layer_1" data-name="Layer 1" xmlns="http://www.w3.org/2000/svg" viewBox="0 0 1920 1080"><defs><style>.cls-1{fill:#ebf3f7;}.cls-2{fill:#0077b6;}.cls-3{fill:#f7a90f;}</style></defs><rect class="cls-1" width="1920" height="1080"/><path class="cls-2" d="M239,480.3c96.38-92.56,143-226.65,272-283.74,113-50.09,250.5-23.16,377.06-37.39,44.68-5,88.63-15.29,132.59-24.69C1113.45,114.61,1201,66.18,1253.79,0H0V597.8a382.31,382.31,0,0,0,52.92-7.67C132,572.9,185.09,532.12,239,480.3Z"/><path class="cls-3" d="M1557.69,643.27a120.6,120.6,0,0,0-46.93-15.84c-.6-.07-1.22-.13-1.83-.17-19.74-1.41-38.63,9.35-58.22,12.58-24.85,4.09-51.85-3.65-74,10.73-26.14,16.95-35.07,57.44-55.24,84.06-6,8-13.61,16.06-15.46,26.21a113.62,113.62,0,0,0,0,38.63h251.7Z"/><path class="cls-3" d="M1557.69,799.47h251.7a113.62,113.62,0,0,0,0-38.63c-1.85-10.15-9.43-18.25-15.46-26.21-20.17-26.62-29.1-67.11-55.24-84.06-22.2-14.38-49.2-6.64-74-10.73-19.59-3.23-38.48-14-58.22-12.58-.61,0-1.23.1-1.84.17a120.61,120.61,0,0,0-46.92,15.84Z"/><path class="cls-3" d="M1557.69,955.66a120.61,120.61,0,0,0,46.92,15.84c.61.07,1.23.13,1.84.17,19.74,1.41,38.63-9.35,58.22-12.58,24.85-4.09,51.85,3.65,74-10.73,26.14-17,35.07-57.43,55.24-84.06,6-8,13.61-16.06,15.46-26.21a113.56,113.56,0,0,0,0-38.62h-251.7Z"/><path class="cls-3" d="M1557.69,799.47H1306a113.56,113.56,0,0,0,0,38.62c1.85,10.15,9.43,18.25,15.46,26.21,20.17,26.63,29.1,67.11,55.24,84.06,22.2,14.38,49.2,6.64,74,10.73,19.59,3.23,38.48,14,58.22,12.58.61,0,1.23-.1,1.83-.17a120.6,120.6,0,0,0,46.93-15.84Z"/></svg>